<svg width="120" height="99" viewBox="0 0 120 99" fill="none" xmlns="http://www.w3.org/2000/svg">
<g clip-path="url(#clip0_34_1113)">
<path d="M86.5308 48.2982C84.0572 48.1759 81.7445 47.4279 80.0232 46.2129C78.1384 44.8824 77.1621 43.1416 77.1621 41.406V38.965C79.6356 39.0873 81.9484 39.8352 83.6697 41.0503C85.5545 42.3807 86.5308 44.1216 86.5308 45.8572V48.2982Z" fill="#E9E9E9" stroke="black" stroke-width="1.44134" stroke-miterlimit="10"/>
<path d="M91.552 40.3912C90.5979 41.167 89.3351 41.6662 87.9712 41.7972V39.1338C87.9712 37.928 88.5591 36.7328 89.6752 35.8252C90.6293 35.0494 91.8921 34.5502 93.2561 34.4192V37.0826C93.2561 38.2884 92.6681 39.4835 91.552 40.3912Z" fill="black" stroke="black" stroke-width="1.44134" stroke-miterlimit="10"/>
<path d="M86.5352 19.9727V54.5648" stroke="black" stroke-width="1.44134"/>
<circle cx="86.4106" cy="18.4106" r="10.6899" fill="#FFCC00" stroke="black" stroke-width="1.44134"/>
<path d="M86.4097 12.8125V14.361" stroke="black" stroke-width="1.44134" stroke-linecap="round" stroke-linejoin="round"/>
<path d="M86.4102 22.1016V23.65" stroke="black" stroke-width="1.44134" stroke-linecap="round" stroke-linejoin="round"/>
<path d="M84.0794 22.1017H87.5655C88.0791 22.1017 88.5717 21.8977 88.935 21.5347C89.2982 21.1717 89.5022 20.6794 89.5022 20.1661C89.5022 19.6527 89.2982 19.1604 88.935 18.7974C88.5717 18.4344 88.0791 18.2305 87.5655 18.2305H85.2414C84.7278 18.2305 84.2351 18.0266 83.8719 17.6636C83.5087 17.3006 83.3047 16.8083 83.3047 16.2949C83.3047 15.7816 83.5087 15.2893 83.8719 14.9263C84.2351 14.5633 84.7278 14.3594 85.2414 14.3594H88.7275" stroke="black" stroke-width="1.44134" stroke-linecap="round" stroke-linejoin="round"/>
<rect x="25.9644" y="93.3594" width="17.996" height="5.1417" fill="#E9E9E9" stroke="black" stroke-width="1.44134"/>
<path d="M80.5408 59.9964C81.0776 60.7853 81.9699 61.2574 82.924 61.2574H90.1367C91.0908 61.2574 91.9831 60.7853 92.5199 59.9964L95.5882 55.4875C96.5592 54.0606 95.5372 52.1289 93.8113 52.1289H92.4707C92.024 52.1289 91.6619 52.491 91.6619 52.9377C91.6619 53.5142 91.0759 53.9056 90.5434 53.6849L87.8056 52.5501C87.1527 52.2794 86.4214 52.2668 85.7595 52.5148L82.5158 53.7301C81.9753 53.9326 81.3988 53.533 81.3988 52.9558C81.3988 52.4991 81.0287 52.1289 80.572 52.1289H79.2495C77.5235 52.1289 76.5015 54.0606 77.4725 55.4875L80.5408 59.9964Z" fill="#E9E9E9" stroke="black" stroke-width="1.44134"/>
<path d="M68.9434 89.5617C68.9434 99.006 76.5995 106.662 86.0438 106.662L88.8374 106.662C98.2817 106.662 105.938 99.006 105.938 89.5617L105.938 78.0755C105.938 67.8598 97.6563 59.5783 87.4406 59.5783C77.2249 59.5783 68.9434 67.8598 68.9434 78.0755L68.9434 89.5617Z" fill="white" stroke="black" stroke-width="1.44134"/>
<path d="M69.6641 89.5387C69.6641 98.5966 75.5383 105.939 82.7846 105.939H92.0966C99.3428 105.939 105.217 98.5965 105.217 89.5387V87.5628C103.757 73.5339 94.161 62.6992 82.54 62.6992C81.2352 62.6992 79.9558 62.8358 78.7107 63.0982C73.3101 66.9113 69.6641 74.1531 69.6641 82.4593V89.5387Z" fill="#E9E9E9"/>
<path d="M86.792 74.2305V75.9449" stroke="black" stroke-width="1.44134" stroke-linecap="round" stroke-linejoin="round"/>
<path d="M86.792 84.5156V86.2301" stroke="black" stroke-width="1.44134" stroke-linecap="round" stroke-linejoin="round"/>
<path d="M84.2132 84.5175H88.073C88.6417 84.5175 89.1871 84.2917 89.5893 83.8898C89.9914 83.4879 90.2173 82.9428 90.2173 82.3745C90.2173 81.8061 89.9914 81.261 89.5893 80.8591C89.1871 80.4572 88.6417 80.2314 88.073 80.2314H85.4998C84.9311 80.2314 84.3857 80.0056 83.9835 79.6037C83.5814 79.2018 83.3555 78.6567 83.3555 78.0884C83.3555 77.52 83.5814 76.9749 83.9835 76.573C84.3857 76.1711 84.9311 75.9453 85.4998 75.9453H89.3596" stroke="black" stroke-width="1.44134" stroke-linecap="round" stroke-linejoin="round"/>
<rect x="77.1113" y="58.373" width="19.6983" height="2.88268" rx="1.44134" fill="black" stroke="black" stroke-width="1.44134"/>
<rect x="93.9224" y="83.1133" width="17.996" height="5.1417" fill="white" stroke="black" stroke-width="1.44134"/>
<rect x="91.7617" y="88.207" width="17.996" height="5.1417" fill="#E9E9E9" stroke="black" stroke-width="1.44134"/>
<rect x="93.9219" y="93.3555" width="17.996" height="5.1417" fill="#E9E9E9" stroke="black" stroke-width="1.44134"/>
<rect x="30.72" y="33.72" width="41.56" height="64.56" rx="3.28" fill="white" stroke="black" stroke-width="1.44"/>
<path fill-rule="evenodd" clip-rule="evenodd" d="M73 87.3483V95C73 97.2091 71.2091 99 69 99H34C31.7909 99 30 97.2091 30 95V41.0664C30.4391 40.6997 30.8878 40.3441 31.3457 40C31.2632 41.1025 31.2212 42.2162 31.2212 43.3398C31.2212 66.9352 49.7331 86.1989 73 87.3483Z" fill="#E9E9E9"/>
<rect x="30.72" y="33.72" width="41.56" height="64.56" rx="3.28" stroke="black" stroke-width="1.44"/>
<rect x="33.72" y="39.72" width="35.56" height="11.56" rx="2.28" stroke="black" stroke-width="1.44"/>
<rect x="33.72" y="57.72" width="9.56" height="7.56" rx="1.28" stroke="black" stroke-width="1.44"/>
<rect x="33.72" y="70.72" width="9.56" height="7.56" rx="1.28" stroke="black" stroke-width="1.44"/>
<rect x="46.72" y="57.72" width="9.56" height="7.56" rx="1.28" stroke="black" stroke-width="1.44"/>
<rect x="46.72" y="70.72" width="9.56" height="7.56" rx="1.28" stroke="black" stroke-width="1.44"/>
<rect x="59.72" y="70.72" width="9.56" height="7.56" rx="1.28" stroke="black" stroke-width="1.44"/>
<rect x="46.72" y="83.72" width="9.56" height="7.56" rx="1.28" stroke="black" stroke-width="1.44"/>
<rect x="59.72" y="83.72" width="9.56" height="7.56" rx="1.28" stroke="black" stroke-width="1.44"/>
<rect x="59.72" y="57.72" width="9.56" height="7.56" rx="1.28" stroke="black" stroke-width="1.44"/>
<circle cx="27.9198" cy="87.9323" r="14.0964" transform="rotate(-13.0742 27.9198 87.9323)" fill="white"/>
<circle cx="27.9198" cy="87.9323" r="13.3757" transform="rotate(-13.0742 27.9198 87.9323)" fill="white" stroke="black" stroke-width="1.44134"/>
<circle cx="27.8239" cy="87.8727" r="10.0925" transform="rotate(-13.0742 27.8239 87.8727)" fill="#E9E9E9"/>
<path d="M26.6719 82.3914L27.0303 83.9345" stroke="black" stroke-width="1.28716" stroke-linecap="round" stroke-linejoin="round"/>
<path d="M28.821 91.6454L29.1794 93.1886" stroke="black" stroke-width="1.28716" stroke-linecap="round" stroke-linejoin="round"/>
<path d="M26.5036 92.1888L29.9778 91.382C30.4897 91.2631 30.9335 90.9459 31.2114 90.5C31.4894 90.0542 31.5788 89.5164 31.46 89.0048C31.3412 88.4932 31.0239 88.0498 30.5779 87.7721C30.1319 87.4944 29.5938 87.4052 29.0819 87.524L26.7658 88.0619C26.2539 88.1808 25.7157 88.0916 25.2697 87.8139C24.8238 87.5362 24.5065 87.0928 24.3877 86.5812C24.2689 86.0696 24.3583 85.5317 24.6362 85.0859C24.9142 84.6401 25.3579 84.3229 25.8698 84.204L29.344 83.3972" stroke="black" stroke-width="1.28716" stroke-linecap="round" stroke-linejoin="round"/>
<path d="M0 98.4727L119.706 98.4727" stroke="black" stroke-width="1.44134" stroke-linecap="round"/>
</g>
<defs>
<clipPath id="clip0_34_1113">
<rect width="120" height="98.7342" fill="white"/>
</clipPath>
</defs>
</svg>
