<svg width="120" height="99" viewBox="0 0 120 99" fill="none" xmlns="http://www.w3.org/2000/svg">
<g clip-path="url(#clip0_34_1320)">
<path d="M83.5308 49.2982C81.0572 49.1759 78.7445 48.4279 77.0232 47.2129C75.1384 45.8824 74.1621 44.1416 74.1621 42.406V39.965C76.6356 40.0873 78.9484 40.8352 80.6697 42.0503C82.5545 43.3807 83.5308 45.1216 83.5308 46.8572V49.2982Z" fill="#E9E9E9" stroke="black" stroke-width="1.44134" stroke-miterlimit="10"/>
<path d="M88.552 41.3912C87.5979 42.167 86.3351 42.6662 84.9712 42.7972V40.1338C84.9712 38.928 85.5591 37.7328 86.6752 36.8252C87.6293 36.0494 88.8921 35.5502 90.2561 35.4192V38.0826C90.2561 39.2884 89.6681 40.4835 88.552 41.3912Z" fill="black" stroke="black" stroke-width="1.44134" stroke-miterlimit="10"/>
<path d="M83.5352 20.9727V55.5648" stroke="black" stroke-width="1.44134"/>
<circle cx="83.4106" cy="19.4106" r="10.6899" fill="#FFCC00" stroke="black" stroke-width="1.44134"/>
<path d="M83.4097 13.8125V15.361" stroke="black" stroke-width="1.44134" stroke-linecap="round" stroke-linejoin="round"/>
<path d="M83.4102 23.1016V24.65" stroke="black" stroke-width="1.44134" stroke-linecap="round" stroke-linejoin="round"/>
<path d="M81.0794 23.1017H84.5655C85.0791 23.1017 85.5717 22.8977 85.935 22.5347C86.2982 22.1717 86.5022 21.6794 86.5022 21.1661C86.5022 20.6527 86.2982 20.1604 85.935 19.7974C85.5717 19.4344 85.0791 19.2305 84.5655 19.2305H82.2414C81.7278 19.2305 81.2351 19.0266 80.8719 18.6636C80.5087 18.3006 80.3047 17.8083 80.3047 17.2949C80.3047 16.7816 80.5087 16.2893 80.8719 15.9263C81.2351 15.5633 81.7278 15.3594 82.2414 15.3594H85.7275" stroke="black" stroke-width="1.44134" stroke-linecap="round" stroke-linejoin="round"/>
<path d="M77.8767 59.8675C78.4135 60.6564 79.3058 61.1285 80.26 61.1285H87.4726C88.4268 61.1285 89.3191 60.6564 89.8559 59.8675L92.9242 55.3586C93.8952 53.9317 92.8732 52 91.1472 52H89.8066C89.3599 52 88.9978 52.3621 88.9978 52.8088C88.9978 53.3853 88.4119 53.7767 87.8793 53.556L85.1415 52.4212C84.4886 52.1505 83.7573 52.1379 83.0955 52.3859L79.8517 53.6011C79.3112 53.8037 78.7348 53.4041 78.7348 52.8269C78.7348 52.3702 78.3646 52 77.9079 52H76.5854C74.8594 52 73.8374 53.9317 74.8084 55.3586L77.8767 59.8675Z" fill="#E9E9E9" stroke="black" stroke-width="1.44134"/>
<path d="M66.2793 89.4328C66.2793 98.8771 73.9355 106.533 83.3797 106.533L86.1733 106.533C95.6176 106.533 103.274 98.8771 103.274 89.4328L103.274 77.9466C103.274 67.7309 94.9922 59.4494 84.7765 59.4494C74.5608 59.4494 66.2793 67.7309 66.2793 77.9466L66.2793 89.4328Z" fill="white" stroke="black" stroke-width="1.44134"/>
<path d="M67 89.4098C67 98.4677 72.8743 105.81 80.1205 105.81H89.4325C96.6788 105.81 102.553 98.4676 102.553 89.4098V87.4339C101.093 73.405 91.4969 62.5703 79.876 62.5703C78.5711 62.5703 77.2918 62.7069 76.0466 62.9693C70.646 66.7824 67 74.0242 67 82.3304V89.4098Z" fill="#E9E9E9"/>
<path d="M84.1279 74.1016V75.816" stroke="black" stroke-width="1.44134" stroke-linecap="round" stroke-linejoin="round"/>
<path d="M84.1279 84.3867V86.1012" stroke="black" stroke-width="1.44134" stroke-linecap="round" stroke-linejoin="round"/>
<path d="M81.5491 84.3886H85.4089C85.9776 84.3886 86.5231 84.1628 86.9252 83.7609C87.3273 83.359 87.5533 82.8139 87.5533 82.2455C87.5533 81.6772 87.3273 81.1321 86.9252 80.7302C86.5231 80.3283 85.9776 80.1025 85.4089 80.1025H82.8357C82.267 80.1025 81.7216 79.8767 81.3195 79.4748C80.9173 79.0729 80.6914 78.5278 80.6914 77.9595C80.6914 77.3911 80.9173 76.846 81.3195 76.4441C81.7216 76.0422 82.267 75.8164 82.8357 75.8164H86.6955" stroke="black" stroke-width="1.44134" stroke-linecap="round" stroke-linejoin="round"/>
<rect x="74.4472" y="58.2441" width="19.6983" height="2.88268" rx="1.44134" fill="black" stroke="black" stroke-width="1.44134"/>
<rect x="91.2583" y="82.9844" width="17.996" height="5.1417" fill="white" stroke="black" stroke-width="1.44134"/>
<rect x="89.0977" y="88.0781" width="17.996" height="5.1417" fill="#E9E9E9" stroke="black" stroke-width="1.44134"/>
<rect x="91.2578" y="93.2266" width="17.996" height="5.1417" fill="#E9E9E9" stroke="black" stroke-width="1.44134"/>
<path d="M69 98L69 48L58 48L58 98L69 98Z" fill="#E9E9E9" stroke="black" stroke-width="1.4413"/>
<path d="M52 98L52 64L41 64L41 98L52 98Z" fill="#E9E9E9" stroke="black" stroke-width="1.4413"/>
<path d="M35 98L35 73L24 73L24 98L35 98Z" fill="#E9E9E9" stroke="black" stroke-width="1.4413"/>
<circle cx="17.0964" cy="89.0964" r="12.0964" transform="rotate(-20.4391 17.0964 89.0964)" fill="white"/>
<circle cx="17.0964" cy="89.0964" r="11.3757" transform="rotate(-20.4391 17.0964 89.0964)" fill="white" stroke="black" stroke-width="1.44134"/>
<circle cx="17.0084" cy="89.056" r="8.66057" transform="rotate(-20.4391 17.0084 89.056)" fill="#E9E9E9"/>
<path d="M15.425 84.5181L15.8998 85.7919" stroke="black" stroke-width="1.28716" stroke-linecap="round" stroke-linejoin="round"/>
<path d="M18.272 92.1572L18.7467 93.4311" stroke="black" stroke-width="1.28716" stroke-linecap="round" stroke-linejoin="round"/>
<path d="M16.3594 92.8746L19.2274 91.8058C19.6499 91.6483 19.9927 91.3295 20.1802 90.9195C20.3677 90.5095 20.3846 90.042 20.2273 89.6196C20.0699 89.1973 19.7511 88.8549 19.341 88.6676C18.9309 88.4803 18.4631 88.4636 18.0405 88.6211L16.1286 89.3336C15.706 89.4911 15.2382 89.4743 14.8281 89.2871C14.418 89.0998 14.0992 88.7573 13.9418 88.335C13.7844 87.9127 13.8014 87.4451 13.9889 87.0352C14.1764 86.6252 14.5191 86.3064 14.9417 86.1489L17.8096 85.0801" stroke="black" stroke-width="1.28716" stroke-linecap="round" stroke-linejoin="round"/>
<path d="M1.5 98L118.5 98" stroke="black" stroke-width="1.4413" stroke-linecap="round"/>
<path d="M49.0502 28.4543L51.3902 30.7943L43.4602 38.7243L38.114 33.3781C37.4802 32.7443 36.4565 32.7443 35.8227 33.3781L26.0727 43.1443C25.439 43.7781 25.439 44.8018 26.0727 45.4356C26.7065 46.0693 27.7302 46.0693 28.364 45.4356L36.9602 36.8231L42.3065 42.1693C42.9402 42.8031 43.964 42.8031 44.5977 42.1693L53.6815 33.1018L56.0215 35.4418C56.5252 35.9456 57.4027 35.5881 57.4027 34.8731V27.9018C57.4027 27.4468 57.0452 27.0893 56.5902 27.0893H49.619C48.904 27.0731 48.5465 27.9506 49.0502 28.4543Z" fill="black"/>
</g>
<defs>
<clipPath id="clip0_34_1320">
<rect width="120" height="98.7342" fill="white"/>
</clipPath>
</defs>
</svg>
