<svg width="120" height="72" viewBox="0 0 120 72" fill="none" xmlns="http://www.w3.org/2000/svg">
<path d="M28.8685 65.5H8.69727V71.26H28.8685V65.5Z" fill="white" stroke="black" stroke-width="1.4413"/>
<path d="M23.5228 59.7402H3.35156V65.5002H23.5228V59.7402Z" fill="#E9E9E9" stroke="black" stroke-width="1.4413"/>
<path d="M91.8861 53.8223H71.7148V59.5823H91.8861V53.8223Z" fill="white" stroke="black" stroke-width="1.4413"/>
<path d="M105.423 59.6621H85.252V65.4221H105.423V59.6621Z" fill="#E9E9E9" stroke="black" stroke-width="1.4413"/>
<path d="M85.2513 59.6621H65.0801V65.4221H85.2513V59.6621Z" fill="#E9E9E9" stroke="black" stroke-width="1.4413"/>
<path d="M87.6732 65.4336H67.502V71.1936H87.6732V65.4336Z" fill="#E9E9E9" stroke="black" stroke-width="1.4413"/>
<path d="M107.845 65.4336H87.6738V71.1936H107.845V65.4336Z" fill="white" stroke="black" stroke-width="1.4413"/>
<path d="M90.1722 58.7086C96.7016 58.7086 101.995 53.4155 101.995 46.8861C101.995 40.3566 96.7016 35.0635 90.1722 35.0635C83.6428 35.0635 78.3496 40.3566 78.3496 46.8861C78.3496 53.4155 83.6428 58.7086 90.1722 58.7086Z" fill="white"/>
<path d="M90.1732 58.0047C96.3128 58.0047 101.29 53.0276 101.29 46.8881C101.29 40.7485 96.3128 35.7715 90.1732 35.7715C84.0337 35.7715 79.0566 40.7485 79.0566 46.8881C79.0566 53.0276 84.0337 58.0047 90.1732 58.0047Z" fill="white" stroke="black" stroke-width="1.4413"/>
<path d="M90.1404 55.2691C94.8131 55.2691 98.6011 51.4811 98.6011 46.8084C98.6011 42.1356 94.8131 38.3477 90.1404 38.3477C85.4677 38.3477 81.6797 42.1356 81.6797 46.8084C81.6797 51.4811 85.4677 55.2691 90.1404 55.2691Z" fill="#E9E9E9"/>
<path d="M91.8657 42.4385L91.4062 43.6824" stroke="black" stroke-width="1.2872" stroke-linecap="round" stroke-linejoin="round"/>
<path d="M89.0864 49.9014L88.627 51.1453" stroke="black" stroke-width="1.2872" stroke-linecap="round" stroke-linejoin="round"/>
<path d="M87.2148 49.2177L90.0164 50.2599C90.431 50.4168 90.8905 50.3944 91.2827 50.2151C91.6861 50.0358 91.9999 49.6996 92.1456 49.285C92.3025 48.8703 92.2801 48.4109 92.1008 48.0187C91.9215 47.6152 91.5853 47.3015 91.1706 47.1558L89.2992 46.461C88.8846 46.3041 88.5484 45.9903 88.3691 45.5981C88.1898 45.1947 88.1674 44.7352 88.3243 44.3318C88.4811 43.9172 88.7949 43.581 89.1871 43.4017C89.5906 43.2224 90.05 43.2 90.4534 43.3569L93.255 44.399" stroke="black" stroke-width="1.2872" stroke-linecap="round" stroke-linejoin="round"/>
<path d="M82.0882 1.70335C82.2339 1.69214 82.3684 1.70335 82.5141 1.71455C82.671 1.72576 82.8278 1.73697 82.9847 1.75938C83.1976 1.78179 82.8727 1.73697 83.0968 1.77059C83.2088 1.793 83.3209 1.8042 83.433 1.82662C84.4527 2.02833 85.3604 2.38693 86.1449 3.11533C88.0611 4.89712 87.7025 7.7211 87.7025 10.0856C87.7025 11.2286 87.7025 12.3717 87.7025 13.5035C87.9827 13.2234 88.2629 12.9432 88.543 12.663C84.7665 12.663 81.0012 12.663 77.2247 12.663C76.6868 12.663 76.1601 12.663 75.6222 12.663C75.9024 12.9432 76.1825 13.2234 76.4627 13.5035C76.4627 9.81666 76.4627 6.12981 76.4627 2.44296C76.4627 1.90506 76.4627 1.36716 76.4627 0.829261C76.1825 1.10942 75.9024 1.38957 75.6222 1.66973C77.785 1.69214 79.9366 1.70335 82.0882 1.70335C83.1752 1.70335 83.1752 0.0224125 82.0882 0.0112062C79.9366 0.0112062 77.785 0.0112062 75.6334 0C75.174 0 74.793 0.392218 74.793 0.840468C74.793 4.52732 74.793 8.21417 74.793 11.901C74.793 12.4389 74.793 12.9768 74.793 13.5147C74.793 13.9742 75.1852 14.3552 75.6334 14.3552C79.4099 14.3552 83.1752 14.3552 86.9517 14.3552C87.4896 14.3552 88.0163 14.3552 88.5542 14.3552C89.0137 14.3552 89.3947 13.963 89.3947 13.5147C89.3947 11.3855 89.4395 9.25635 89.3947 7.12717C89.3611 5.33417 88.8568 3.54117 87.6129 2.19642C86.7276 1.24389 85.5285 0.616343 84.2847 0.291362C83.5787 0.112062 82.8166 -0.0112062 82.0882 0.0112062C81.0124 0.0672374 81.0012 1.74817 82.0882 1.70335Z" fill="black"/>
<path d="M42.8768 0.862305H82.8046C82.8046 0.862305 77.2351 1.84845 77.2351 6.91367V65.0516C77.2351 65.0516 76.3274 71.2262 68.7968 71.0245H36.4668V7.18262C36.4668 7.18262 36.4668 0.862305 42.8768 0.862305Z" fill="white"/>
<path d="M42.8774 1.70392C54.5207 1.70392 66.1751 1.70392 77.8184 1.70392C79.4769 1.70392 81.1355 1.70392 82.8052 1.70392C82.7268 1.15481 82.6595 0.594499 82.5811 0.0453932C79.0399 0.695355 76.4064 3.51933 76.384 7.15015C76.3728 9.43622 76.384 11.7223 76.384 14.0084C76.384 23.6009 76.384 33.1934 76.384 42.786C76.384 50.014 76.384 57.2308 76.384 64.4588C76.384 64.6493 76.3952 64.8286 76.384 65.0191C76.3952 64.6045 76.328 65.2209 76.2608 65.445C75.6892 67.4061 74.1988 68.9862 72.2825 69.6809C70.8145 70.2076 69.2793 70.174 67.7552 70.174C66.1864 70.174 64.6175 70.174 63.0374 70.174C54.375 70.174 45.7126 70.174 37.0501 70.174C36.8596 70.174 36.6579 70.174 36.4674 70.174C36.7476 70.4542 37.0277 70.7343 37.3079 71.0145C37.3079 62.2848 37.3079 53.5664 37.3079 44.8367C37.3079 33.1374 37.3079 21.4381 37.3079 9.72758C37.3079 8.87591 37.2743 8.01303 37.3079 7.16135C37.42 3.95637 39.6388 1.75995 42.8774 1.70392C43.9644 1.6815 43.9644 0.000568298 42.8774 0.0117745C39.3138 0.0790119 36.5235 2.16337 35.8063 5.70454C35.6382 6.51139 35.627 7.27341 35.627 8.08026C35.627 12.2826 35.627 16.4849 35.627 20.6873C35.627 34.0451 35.627 47.4142 35.627 60.772C35.627 64.1899 35.627 67.6078 35.627 71.0145C35.627 71.4739 36.0192 71.8549 36.4674 71.8549C44.2333 71.8549 51.9881 71.8549 59.754 71.8549C62.746 71.8549 65.7493 71.8549 68.7414 71.8549C72.8204 71.8549 77.2693 69.8042 78.0201 65.3553C78.2667 63.8873 78.065 62.2512 78.065 60.772C78.065 56.8162 78.065 52.8716 78.065 48.9158C78.065 38.8862 78.065 28.8566 78.065 18.8382C78.065 15.5212 78.065 12.193 78.065 8.87591C78.065 8.23715 78.0538 7.5984 78.065 6.97085C78.0986 4.66236 79.4769 2.99263 81.5613 2.11855C82.0208 1.92804 82.525 1.75995 83.0181 1.6703C83.9706 1.491 83.7241 0.0117745 82.794 0.0117745C71.1507 0.0117745 59.4962 0.0117745 47.853 0.0117745C46.1944 0.0117745 44.5359 0.0117745 42.8662 0.0117745C41.7904 0.0229808 41.7904 1.70392 42.8774 1.70392Z" fill="black"/>
<path d="M37.2969 8.55078C37.2969 8.55078 53.6692 56.2557 76.373 56.2557V64.8397C76.373 64.8397 75.6782 70.1515 69.8062 70.1515H37.2969V8.55078Z" fill="#E9E9E9"/>
<path d="M23.0762 58.417H63.6539V65.5666C63.6539 65.5666 63.7436 69.2422 69.2795 71.0128H29.0939C29.0939 71.0128 23.4572 71.1697 23.0762 64.0089V58.417Z" fill="white"/>
<path d="M23.077 59.258C34.9108 59.258 46.7446 59.258 58.5784 59.258C60.2705 59.258 61.9627 59.258 63.666 59.258C63.3858 58.9779 63.1057 58.6977 62.8255 58.4176C62.8255 60.7821 62.6687 63.2026 62.8255 65.5671C63.0497 68.8506 66.2659 70.8789 69.0786 71.8202C69.1571 71.2711 69.2243 70.7108 69.3027 70.1617C62.1195 70.1617 54.9476 70.1617 47.7644 70.1617C43.125 70.1617 38.4856 70.1617 33.8462 70.1617C32.1653 70.1617 30.1706 70.3522 28.5905 70.1281C23.0658 69.3549 23.9399 62.463 23.9399 58.4064C23.9399 57.3194 22.2478 57.3194 22.2478 58.4064C22.2478 62.6983 21.4969 68.4584 25.901 70.9573C27.7164 71.9883 29.6215 71.8426 31.6162 71.8426C41.1863 71.8426 50.7452 71.8426 60.3153 71.8426C63.3074 71.8426 66.3107 71.8426 69.3027 71.8426C70.2777 71.8426 70.4122 70.4867 69.5269 70.1841C67.7002 69.5678 65.8176 68.5704 64.9211 66.7886C64.7418 66.43 64.5961 66.049 64.5289 65.6456C64.5065 65.5335 64.5289 65.668 64.5177 65.3878C64.4617 63.0569 64.5177 60.7261 64.5177 58.3952C64.5177 57.9357 64.1255 57.5547 63.6772 57.5547C51.8434 57.5547 40.0096 57.5547 28.1759 57.5547C26.4837 57.5547 24.7916 57.5547 23.0882 57.5547C21.99 57.5771 21.99 59.258 23.077 59.258Z" fill="black"/>
<path d="M45.1863 20.4617C51.7868 20.4617 58.3873 20.4617 64.9878 20.4617C65.9179 20.4617 66.8592 20.4617 67.7893 20.4617C68.8763 20.4617 68.8763 18.7695 67.7893 18.7695C61.1889 18.7695 54.5884 18.7695 47.9879 18.7695C47.0578 18.7695 46.1165 18.7695 45.1863 18.7695C44.0993 18.7807 44.0993 20.4617 45.1863 20.4617Z" fill="black"/>
<path d="M45.1863 26.3894C51.7868 26.3894 58.3873 26.3894 64.9878 26.3894C65.9179 26.3894 66.8592 26.3894 67.7893 26.3894C68.8763 26.3894 68.8763 24.6973 67.7893 24.6973C61.1889 24.6973 54.5884 24.6973 47.9879 24.6973C47.0578 24.6973 46.1165 24.6973 45.1863 24.6973C44.0993 24.7085 44.0993 26.3894 45.1863 26.3894Z" fill="black"/>
<path d="M45.1863 32.5418C51.7868 32.5418 58.3873 32.5418 64.9878 32.5418C65.9179 32.5418 66.8592 32.5418 67.7893 32.5418C68.8763 32.5418 68.8763 30.8496 67.7893 30.8496C61.1889 30.8496 54.5884 30.8496 47.9879 30.8496C47.0578 30.8496 46.1165 30.8496 45.1863 30.8496C44.0993 30.8608 44.0993 32.5418 45.1863 32.5418Z" fill="black"/>
<path d="M1.5 71L118.5 71" stroke="black" stroke-width="1.4413" stroke-linecap="round"/>
<path d="M27.4795 63.9589C34.0955 63.9589 39.4589 58.5955 39.4589 51.9795C39.4589 45.3634 34.0955 40 27.4795 40C20.8634 40 15.5 45.3634 15.5 51.9795C15.5 58.5955 20.8634 63.9589 27.4795 63.9589Z" fill="#FFCC00" stroke="black" stroke-width="1.4413"/>
<path d="M25.9453 45.8945L26.3712 47.5755" stroke="black" stroke-width="1.4413" stroke-linecap="round" stroke-linejoin="round"/>
<path d="M28.4883 55.9912L28.9141 57.6721" stroke="black" stroke-width="1.4413" stroke-linecap="round" stroke-linejoin="round"/>
<path d="M25.9557 56.6319L29.7434 55.6794C30.3037 55.5337 30.7856 55.1863 31.0769 54.6932C31.3683 54.2002 31.4579 53.6062 31.3234 53.0459C31.1778 52.4856 30.8304 52.0037 30.3373 51.7124C29.8442 51.421 29.2503 51.3314 28.69 51.477L26.1686 52.1158C25.6083 52.2615 25.0143 52.1718 24.5213 51.8805C24.0282 51.5891 23.6696 51.1072 23.5351 50.5469C23.3894 49.9866 23.4791 49.3927 23.7817 48.8996C24.073 48.4065 24.5549 48.0479 25.1152 47.9135L28.9029 46.9609" stroke="black" stroke-width="1.4413" stroke-linecap="round" stroke-linejoin="round"/>
<path d="M65.8468 45.9631C65.5218 46.12 65.2192 45.8846 65.2977 45.526C65.7235 43.6434 66.8329 38.9143 67.1915 38.4773L82.6786 19.9198C83.3061 19.169 84.3259 18.9672 84.9422 19.4939L87.7214 21.8136C88.3377 22.3291 88.3377 23.3601 87.6989 24.1221L72.2231 42.6796C71.8645 43.1055 67.5726 45.1562 65.8468 45.9631Z" fill="white" stroke="black" stroke-width="1.4413" stroke-miterlimit="10"/>
<path d="M67.2031 38.4883L72.2235 42.6794" stroke="black" stroke-width="1.4413" stroke-miterlimit="10"/>
<path d="M71.7637 33.0186L76.7841 37.2097" stroke="black" stroke-width="1.4413" stroke-miterlimit="10"/>
<path d="M87.4963 21.6224L85.3223 19.8069L88.0566 16.5347C88.5609 15.9296 89.4574 15.8511 90.0513 16.3554C90.6564 16.8597 90.7349 17.7562 90.2306 18.3501L87.4963 21.6224Z" stroke="black" stroke-width="1.4413" stroke-miterlimit="10"/>
<path d="M87.5428 25.6115C87.5989 25.6563 87.6549 25.7123 87.6997 25.7683C87.7894 25.8692 87.6549 25.6787 87.7334 25.8132C87.7558 25.858 87.8566 26.0709 87.8342 25.9925C87.8678 26.0933 87.8902 26.1269 87.823 26.295C87.767 26.4183 87.6661 26.5192 87.5877 26.62C87.1618 27.1355 86.736 27.6398 86.3102 28.1553C85.2568 29.4216 84.1922 30.6879 83.1388 31.9542C82.8923 32.2568 82.6345 32.5481 82.388 32.8507C82.0966 33.1981 82.0518 33.7024 82.388 34.0385C82.6905 34.3411 83.2845 34.3859 83.5758 34.0385C85.3688 31.8869 87.1954 29.769 88.9548 27.595C89.4367 26.9898 89.6944 26.2614 89.4479 25.4994C89.3134 25.096 89.0669 24.6925 88.7419 24.4124C88.3945 24.121 87.8902 24.0762 87.554 24.4124C87.2403 24.715 87.1954 25.3089 87.5428 25.6115Z" fill="black"/>
<path d="M43.5183 47.0436C44.4933 49.0607 46.6897 50.5287 48.8749 50.8313C51.3739 51.1787 53.4134 50.1477 55.6435 49.2176C57.5373 48.4331 59.7561 48.0409 61.706 48.8926C62.2888 49.1503 62.8379 49.5089 63.2973 49.946C63.443 50.0917 63.5775 50.2373 63.712 50.383C63.8912 50.5959 63.6111 50.2373 63.7456 50.4279C64.4404 51.47 66.1437 50.4951 65.4377 49.4417C64.0481 47.3685 61.3474 46.3488 58.9269 46.4608C57.7502 46.5169 56.5848 46.7746 55.4866 47.1893C54.1642 47.6823 52.9652 48.4107 51.5868 48.7469C49.9283 49.1503 48.1801 48.971 46.7905 47.9177C46.107 47.4022 45.5803 46.8082 45.2217 46.0574C44.6614 44.9256 42.9692 45.9117 43.5183 47.0436Z" fill="black"/>
</svg>
